<svg width="11" height="18" viewBox="0 0 11 18" fill="none" xmlns="http://www.w3.org/2000/svg">
<path d="M0.0132677 1.50199C0.0377569 1.27669 0.111925 1.07098 0.272155 0.907247C0.495007 0.678447 0.714361 0.4444 0.954006 0.234143C1.3091 -0.0782705 1.81848 -0.0740726 2.18442 0.222947C2.23829 0.267028 2.28995 0.313674 2.3394 0.362886C4.93503 2.96225 7.53042 5.56184 10.1256 8.16167C10.5104 8.54895 10.593 9.00305 10.354 9.42566C10.2898 9.52952 10.2119 9.62425 10.1224 9.70729C7.52727 12.3069 4.93246 14.9074 2.338 17.5089C2.17077 17.6768 1.97311 17.7818 1.76215 17.8727H1.37732C1.10199 17.8447 0.89838 17.689 0.71576 17.498C0.53314 17.307 0.32603 17.1345 0.170348 16.9159C0.0597969 16.7605 -0.0108706 16.5937 0.00137408 16.3988V16.2193C-0.0129696 15.9556 0.103879 15.7537 0.285099 15.5721C2.42173 13.4355 4.55696 11.2977 6.69079 9.15873C6.72752 9.12165 6.76251 9.08212 6.80169 9.04818C6.88461 8.97821 6.89615 8.90824 6.80694 8.83197C6.76741 8.79699 6.73277 8.75851 6.69569 8.72142C4.57025 6.59086 2.44354 4.46087 0.315536 2.33147C0.0849867 2.09952 -0.0413084 1.83574 0.0132677 1.50199Z" fill="white"/>
</svg>
