<svg width="80" height="80" viewBox="0 0 80 80" fill="none" xmlns="http://www.w3.org/2000/svg">
<path d="M80 40C80 62.0914 62.0914 80 40 80C17.9086 80 0 62.0914 0 40C0 17.9086 17.9086 0 40 0C62.0914 0 80 17.9086 80 40Z" fill="black" fill-opacity="0.32"/>
<path fill-rule="evenodd" clip-rule="evenodd" d="M40 76.8421C60.3473 76.8421 76.8421 60.3473 76.8421 40C76.8421 19.6527 60.3473 3.15789 40 3.15789C19.6527 3.15789 3.15789 19.6527 3.15789 40C3.15789 60.3473 19.6527 76.8421 40 76.8421ZM40 80C62.0914 80 80 62.0914 80 40C80 17.9086 62.0914 0 40 0C17.9086 0 0 17.9086 0 40C0 62.0914 17.9086 80 40 80Z" fill="white"/>
<path d="M55.6508 38.0384C57.149 38.9598 57.149 41.0427 55.6508 41.9641L32.1857 56.3962C30.5482 57.4033 28.3873 56.2866 28.3873 54.4333L28.3873 25.5691C28.3873 23.7159 30.5482 22.5992 32.1857 23.6063L55.6508 38.0384Z" fill="white"/>
</svg>
