<?xml version="1.0" encoding="utf-8"?>
<!-- Generator: Adobe Illustrator 19.1.0, SVG Export Plug-In . SVG Version: 6.00 Build 0)  -->
<svg version="1.1"
	 id="svg2" xmlns:cc="http://creativecommons.org/ns#" xmlns:sodipodi="http://sodipodi.sourceforge.net/DTD/sodipodi-0.dtd" xmlns:svg="http://www.w3.org/2000/svg" xmlns:rdf="http://www.w3.org/1999/02/22-rdf-syntax-ns#" xmlns:inkscape="http://www.inkscape.org/namespaces/inkscape" xmlns:dc="http://purl.org/dc/elements/1.1/" sodipodi:docname="simbolo_L.svg" inkscape:version="0.47 r22583"
	 xmlns="http://www.w3.org/2000/svg" xmlns:xlink="http://www.w3.org/1999/xlink" x="0px" y="0px" viewBox="-97 220.9 400 400"
	 style="enable-background:new -97 220.9 400 400;" xml:space="preserve">
<style type="text/css">
	.st0{fill:#FFFFFF;}
</style>
<defs>
	
	
		<inkscape:perspective  id="perspective16" inkscape:vp_x="0 : 221.25 : 1" sodipodi:type="inkscape:persp3d" inkscape:vp_y="0 : 1000 : 0" inkscape:vp_z="442.5 : 221.25 : 1" inkscape:persp3d-origin="221.25 : 147.5 : 1">
		</inkscape:perspective>
	
		<inkscape:perspective  id="perspective5685" inkscape:vp_x="0 : 0.5 : 1" sodipodi:type="inkscape:persp3d" inkscape:vp_y="0 : 1000 : 0" inkscape:vp_z="1 : 0.5 : 1" inkscape:persp3d-origin="0.5 : 0.33333333 : 1">
		</inkscape:perspective>
	
		<inkscape:perspective  id="perspective2830" inkscape:vp_x="0 : 0.5 : 1" sodipodi:type="inkscape:persp3d" inkscape:vp_y="0 : 1000 : 0" inkscape:vp_z="1 : 0.5 : 1" inkscape:persp3d-origin="0.5 : 0.33333333 : 1">
		</inkscape:perspective>
	
		<inkscape:perspective  id="perspective2837" inkscape:vp_x="0 : 0.5 : 1" sodipodi:type="inkscape:persp3d" inkscape:vp_y="0 : 1000 : 0" inkscape:vp_z="1 : 0.5 : 1" inkscape:persp3d-origin="0.5 : 0.33333333 : 1">
		</inkscape:perspective>
</defs>
<sodipodi:namedview  id="namedview10" bordercolor="#666666" inkscape:cy="175.40561" borderopacity="1" showgrid="false" gridtolerance="10" objecttolerance="10" guidetolerance="10" pagecolor="#ffffff" inkscape:cx="42.076033" inkscape:zoom="1.4142136" inkscape:current-layer="svg2" inkscape:window-width="1366" inkscape:pageopacity="0" inkscape:window-maximized="1" inkscape:window-height="706" inkscape:pageshadow="2" inkscape:window-y="-8" inkscape:window-x="-8">
	</sodipodi:namedview>
<g id="layer1" transform="translate(0,-652.36218)">
	<g id="g3176" transform="matrix(0.2951006,0,0,0.2951006,-4086.5531,-2336.2691)">
		<path id="rect62" d="M13636.2,10876h1121.5c64.6,0,117,52.4,117,117v1121.5c0,64.6-52.4,117-117,117h-1121.5
			c-64.6,0-117-52.4-117-117V10993C13519.3,10928.4,13571.6,10876,13636.2,10876z"/>
		<g id="text82">
			<path id="path2904" class="st0" d="M13967.8,11204h114.2v673.4h-130.2v-500.7c-11.3,11.6-23.6,21.7-36.8,30.2
				c-13.2,8.5-27.7,15.6-43.4,21.2v-120.8c23.3-13.2,43-28.5,59.2-45.8C13946.9,11244.3,13959.3,11225.1,13967.8,11204z"/>
		</g>
		<g id="text84">
			<path id="path2901" class="st0" d="M14322.6,11658v64.7c0,34.3,2.7,56.7,8,67.2c5.3,10.5,14.9,15.8,28.8,15.8
				c13.5,0,23-5.9,28.3-17.7s8-33.6,8-65.4v-64.7c0-34-2.6-56.2-7.8-66.5s-14.7-15.6-28.6-15.6s-23.4,5.6-28.8,16.8
				C14325.3,11603.8,14322.6,11625.6,14322.6,11658L14322.6,11658z M14325.4,11358.3v34c0,34.9,2.4,57.5,7.3,67.7
				c4.9,10.2,13.8,15.3,26.7,15.3c12.3,0,20.8-5.6,25.5-16.8c4.7-11.2,7.1-33.3,7.1-66.3v-34c0-33.7-2.4-55.9-7.3-66.8
				c-4.9-10.9-13.6-16.3-26.2-16.3c-12.3,0-20.8,5.7-25.7,17C14327.9,11303.6,14325.4,11325.6,14325.4,11358.3z M14283,11522.5
				c-28.3-8.2-50.6-23.4-66.8-45.5c-16.2-22.2-24.3-48.8-24.3-80v-38.7c0-58.2,13.1-100.3,39.4-126.2c26.3-26,69-38.9,128.1-38.9
				c58.8,0,101.2,12.9,127.2,38.7c26,25.8,38.9,68,38.9,126.5v38.7c0,31.1-7.9,57.9-23.8,80.2c-15.9,22.3-38,37.4-66.3,45.3
				c30.5,8.8,53.8,25,69.8,48.6c16,23.6,24.1,53.5,24.1,89.7v62.8c0,58.2-13.5,100.4-40.6,126.5c-27.1,26.1-70.5,39.2-130.2,39.2
				c-60.1,0-103.3-12.9-129.8-38.7s-39.6-68.1-39.6-126.9v-62.8c0-36.5,7.9-66.5,23.8-89.9
				C14228.8,11547.5,14252.1,11531.3,14283,11522.5L14283,11522.5z"/>
		</g>
	</g>
</g>
</svg>
