<?xml version="1.0" encoding="utf-8"?>
<!-- Generator: Adobe Illustrator 19.1.0, SVG Export Plug-In . SVG Version: 6.00 Build 0)  -->
<svg version="1.1"
	 id="svg2" sodipodi:docname="simbolo_L.svg" inkscape:version="0.47 r22583" xmlns:sodipodi="http://sodipodi.sourceforge.net/DTD/sodipodi-0.dtd" xmlns:dc="http://purl.org/dc/elements/1.1/" xmlns:svg="http://www.w3.org/2000/svg" xmlns:inkscape="http://www.inkscape.org/namespaces/inkscape" xmlns:cc="http://creativecommons.org/ns#" xmlns:rdf="http://www.w3.org/1999/02/22-rdf-syntax-ns#"
	 xmlns="http://www.w3.org/2000/svg" xmlns:xlink="http://www.w3.org/1999/xlink" x="0px" y="0px" viewBox="129 -175 400 400"
	 style="enable-background:new 129 -175 400 400;" xml:space="preserve">
<style type="text/css">
	.st0{fill:none;}
	.st1{fill:#00AF51;}
	.st2{fill:#FFFFFF;}
</style>
<defs>


		<inkscape:perspective  id="perspective16" inkscape:persp3d-origin="221.25 : 147.5 : 1" inkscape:vp_z="442.5 : 221.25 : 1" sodipodi:type="inkscape:persp3d" inkscape:vp_y="0 : 1000 : 0" inkscape:vp_x="0 : 221.25 : 1">
		</inkscape:perspective>

		<inkscape:perspective  id="perspective5685" inkscape:persp3d-origin="0.5 : 0.33333333 : 1" inkscape:vp_z="1 : 0.5 : 1" sodipodi:type="inkscape:persp3d" inkscape:vp_y="0 : 1000 : 0" inkscape:vp_x="0 : 0.5 : 1">
		</inkscape:perspective>

		<inkscape:perspective  id="perspective2830" inkscape:persp3d-origin="0.5 : 0.33333333 : 1" inkscape:vp_z="1 : 0.5 : 1" sodipodi:type="inkscape:persp3d" inkscape:vp_y="0 : 1000 : 0" inkscape:vp_x="0 : 0.5 : 1">
		</inkscape:perspective>

		<inkscape:perspective  id="perspective2837" inkscape:persp3d-origin="0.5 : 0.33333333 : 1" inkscape:vp_z="1 : 0.5 : 1" sodipodi:type="inkscape:persp3d" inkscape:vp_y="0 : 1000 : 0" inkscape:vp_x="0 : 0.5 : 1">
		</inkscape:perspective>
</defs>
<sodipodi:namedview  id="namedview10" inkscape:window-x="-8" inkscape:window-y="-8" inkscape:pageshadow="2" inkscape:window-height="706" inkscape:window-maximized="1" inkscape:pageopacity="0" inkscape:window-width="1366" inkscape:current-layer="svg2" pagecolor="#ffffff" inkscape:zoom="1.4142136" gridtolerance="10" showgrid="false" inkscape:cy="175.40561" borderopacity="1" guidetolerance="10" inkscape:cx="42.076033" objecttolerance="10" bordercolor="#666666">
	</sodipodi:namedview>
<g>
	<path id="path4" class="st0" d="M129-175h400v400H129V-175z"/>
	<path id="path6" class="st1" d="M156.2-173.5c4.8-1.1,9.7-0.7,14.6-0.7c105.1-0.1,210.2,0,315.3,0c5.9,0.2,11.9-0.6,17.6,1.2
		c10.9,3.1,20.2,12,23.2,22.9c2.1,6.2,1.3,12.8,1.4,19.2c0,106.9,0,213.9,0,320.8c0.7,15.6-11.2,30.1-26.2,33.6
		c-6,1.4-12.2,0.5-18.3,0.7c-107.3-0.1-214.6,0-321.9,0c-17.6-0.3-33-16.6-32.2-34.2c0.1-110.7,0-221.4,0-332.1
		C130.3-156.9,141.7-170.4,156.2-173.5z"/>
	<path id="path8" class="st2" d="M274.7-63.2c16.3-0.3,32.6,0,48.9-0.1c0.4,47.7,0.1,95.5,0.1,143.2c26.2,0.1,52.5-0.2,78.7,0.2
		c0.3,11.3,0.1,22.7,0.1,34.1c-42.6,0.2-85.2,0-127.9,0C274.6,55.1,274.6-4,274.7-63.2L274.7-63.2z"/>
</g>
</svg>
