<?xml version="1.0" encoding="utf-8"?>
<!-- Generator: Adobe Illustrator 19.1.0, SVG Export Plug-In . SVG Version: 6.00 Build 0)  -->
<svg version="1.1"
	 id="svg2" xmlns:cc="http://creativecommons.org/ns#" xmlns:sodipodi="http://sodipodi.sourceforge.net/DTD/sodipodi-0.dtd" xmlns:svg="http://www.w3.org/2000/svg" xmlns:rdf="http://www.w3.org/1999/02/22-rdf-syntax-ns#" xmlns:inkscape="http://www.inkscape.org/namespaces/inkscape" xmlns:dc="http://purl.org/dc/elements/1.1/" sodipodi:docname="simbolo_L.svg" inkscape:version="0.47 r22583"
	 xmlns="http://www.w3.org/2000/svg" xmlns:xlink="http://www.w3.org/1999/xlink" x="0px" y="0px" viewBox="-97 220.9 400 400"
	 style="enable-background:new -97 220.9 400 400;" xml:space="preserve">
<style type="text/css">
	.st0{fill:#FF6600;}
	.st1{fill:#FFFFFF;}
</style>
<defs>
	
	
		<inkscape:perspective  id="perspective16" inkscape:vp_x="0 : 221.25 : 1" sodipodi:type="inkscape:persp3d" inkscape:vp_y="0 : 1000 : 0" inkscape:vp_z="442.5 : 221.25 : 1" inkscape:persp3d-origin="221.25 : 147.5 : 1">
		</inkscape:perspective>
	
		<inkscape:perspective  id="perspective5685" inkscape:vp_x="0 : 0.5 : 1" sodipodi:type="inkscape:persp3d" inkscape:vp_y="0 : 1000 : 0" inkscape:vp_z="1 : 0.5 : 1" inkscape:persp3d-origin="0.5 : 0.33333333 : 1">
		</inkscape:perspective>
	
		<inkscape:perspective  id="perspective2830" inkscape:vp_x="0 : 0.5 : 1" sodipodi:type="inkscape:persp3d" inkscape:vp_y="0 : 1000 : 0" inkscape:vp_z="1 : 0.5 : 1" inkscape:persp3d-origin="0.5 : 0.33333333 : 1">
		</inkscape:perspective>
	
		<inkscape:perspective  id="perspective2837" inkscape:vp_x="0 : 0.5 : 1" sodipodi:type="inkscape:persp3d" inkscape:vp_y="0 : 1000 : 0" inkscape:vp_z="1 : 0.5 : 1" inkscape:persp3d-origin="0.5 : 0.33333333 : 1">
		</inkscape:perspective>
</defs>
<sodipodi:namedview  id="namedview10" bordercolor="#666666" inkscape:cy="175.40561" borderopacity="1" showgrid="false" gridtolerance="10" objecttolerance="10" guidetolerance="10" pagecolor="#ffffff" inkscape:cx="42.076033" inkscape:zoom="1.4142136" inkscape:current-layer="svg2" inkscape:window-width="1366" inkscape:pageopacity="0" inkscape:window-maximized="1" inkscape:window-height="706" inkscape:pageshadow="2" inkscape:window-y="-8" inkscape:window-x="-8">
	</sodipodi:namedview>
<g id="layer1" transform="translate(0,-652.36218)">
	<g id="g3115" transform="matrix(0.2951006,0,0,0.2951006,-3138.8375,-2336.2691)">
		<path id="rect58" class="st0" d="M10424.8,10876h1121.5c64.6,0,117,52.4,117,117v1121.5c0,64.6-52.4,117-117,117h-1121.5
			c-64.6,0-117-52.4-117-117V10993C10307.8,10928.4,10360.2,10876,10424.8,10876z"/>
		<g id="text70">
			<path id="path2892" class="st1" d="M10745.6,11196.6h114.2v673.4h-130.2v-500.7c-11.3,11.6-23.6,21.7-36.8,30.2
				c-13.2,8.5-27.7,15.6-43.4,21.2v-120.8c23.3-13.2,43-28.5,59.2-45.8C10724.7,11236.9,10737.1,11217.7,10745.6,11196.6z"/>
		</g>
		<g id="text72">
			<path id="path2889" class="st1" d="M11136.2,11294.7l-86.4,327h87.3l7.6-327H11136.2z M11076.2,11196.6h184.5v425.2h81.2v100.5
				h-81.2v147.7h-127.9v-147.7h-182.6v-115.1L11076.2,11196.6z"/>
		</g>
	</g>
</g>
</svg>
