<?xml version="1.0" encoding="utf-8"?>
<!-- Generator: Adobe Illustrator 19.1.0, SVG Export Plug-In . SVG Version: 6.00 Build 0)  -->
<svg version="1.1"
	 id="svg2" xmlns:cc="http://creativecommons.org/ns#" xmlns:sodipodi="http://sodipodi.sourceforge.net/DTD/sodipodi-0.dtd" xmlns:svg="http://www.w3.org/2000/svg" xmlns:rdf="http://www.w3.org/1999/02/22-rdf-syntax-ns#" xmlns:inkscape="http://www.inkscape.org/namespaces/inkscape" xmlns:dc="http://purl.org/dc/elements/1.1/" sodipodi:docname="simbolo_L.svg" inkscape:version="0.47 r22583"
	 xmlns="http://www.w3.org/2000/svg" xmlns:xlink="http://www.w3.org/1999/xlink" x="0px" y="0px" viewBox="-97 220.9 400 400"
	 style="enable-background:new -97 220.9 400 400;" xml:space="preserve">
<style type="text/css">
	.st0{fill:#FFCC00;}
	.st1{fill:#FFFFFF;}
</style>
<defs>
	
	
		<inkscape:perspective  id="perspective16" inkscape:vp_x="0 : 221.25 : 1" sodipodi:type="inkscape:persp3d" inkscape:vp_y="0 : 1000 : 0" inkscape:vp_z="442.5 : 221.25 : 1" inkscape:persp3d-origin="221.25 : 147.5 : 1">
		</inkscape:perspective>
	
		<inkscape:perspective  id="perspective5685" inkscape:vp_x="0 : 0.5 : 1" sodipodi:type="inkscape:persp3d" inkscape:vp_y="0 : 1000 : 0" inkscape:vp_z="1 : 0.5 : 1" inkscape:persp3d-origin="0.5 : 0.33333333 : 1">
		</inkscape:perspective>
	
		<inkscape:perspective  id="perspective2830" inkscape:vp_x="0 : 0.5 : 1" sodipodi:type="inkscape:persp3d" inkscape:vp_y="0 : 1000 : 0" inkscape:vp_z="1 : 0.5 : 1" inkscape:persp3d-origin="0.5 : 0.33333333 : 1">
		</inkscape:perspective>
	
		<inkscape:perspective  id="perspective2837" inkscape:vp_x="0 : 0.5 : 1" sodipodi:type="inkscape:persp3d" inkscape:vp_y="0 : 1000 : 0" inkscape:vp_z="1 : 0.5 : 1" inkscape:persp3d-origin="0.5 : 0.33333333 : 1">
		</inkscape:perspective>
</defs>
<sodipodi:namedview  id="namedview10" bordercolor="#666666" inkscape:cy="175.40561" borderopacity="1" showgrid="false" gridtolerance="10" objecttolerance="10" guidetolerance="10" pagecolor="#ffffff" inkscape:cx="42.076033" inkscape:zoom="1.4142136" inkscape:current-layer="svg2" inkscape:window-width="1366" inkscape:pageopacity="0" inkscape:window-maximized="1" inkscape:window-height="706" inkscape:pageshadow="2" inkscape:window-y="-8" inkscape:window-x="-8">
	</sodipodi:namedview>
<g id="layer1_1_" transform="translate(0,-652.36218)">
	<g id="g3061" transform="matrix(0.2951006,0,0,0.2951006,-2641.3037,-2336.2691)">
		<path id="rect56" class="st0" d="M8738.8,10876h1121.5c64.6,0,117,52.4,117,117v1121.5c0,64.6-52.4,117-117,117H8738.8
			c-64.6,0-117-52.4-117-117V10993C8621.8,10928.4,8674.2,10876,8738.8,10876z"/>
		<g id="text74">
			<path id="path2886" class="st1" d="M9073.4,11222.5h114.2v673.4h-130.2v-500.7c-11.3,11.6-23.6,21.7-36.8,30.2
				c-13.2,8.5-27.7,15.6-43.4,21.2v-120.8c23.3-13.2,43-28.5,59.2-45.8C9052.6,11262.8,9064.9,11243.6,9073.4,11222.5z"/>
		</g>
		<g id="text76">
			<path id="path2883" class="st1" d="M9633,11394.3v9.9c0,31.1-4.6,60.2-13.7,87.1c-9.1,26.9-24.5,55.8-46.2,86.6l-152,215.7h223.2
				v102.4h-361v-125.5l157.1-229.4c18.2-26.1,32.2-50.9,41.8-74.3c9.6-23.4,14.4-44.3,14.4-62.5v-27.4c0-33.7-2.4-55.9-7.3-66.8
				c-4.9-10.9-13.8-16.3-26.7-16.3c-12,0-20.4,5.7-25.2,17c-4.9,11.3-7.3,33.3-7.3,66.1v27.4h-136.4v-9.9
				c0-68.9,12.4-116.6,37.3-143c24.9-26.4,69.2-39.6,133.1-39.6c63.6,0,107.6,13.1,132.1,39.2
				C9620.8,11276.9,9633,11324.7,9633,11394.3L9633,11394.3z"/>
		</g>
	</g>
</g>
</svg>
