<?xml version="1.0" encoding="utf-8"?>
<!-- Generator: Adobe Illustrator 19.1.0, SVG Export Plug-In . SVG Version: 6.00 Build 0)  -->
<svg version="1.1"
	 id="svg2" xmlns:cc="http://creativecommons.org/ns#" xmlns:sodipodi="http://sodipodi.sourceforge.net/DTD/sodipodi-0.dtd" xmlns:svg="http://www.w3.org/2000/svg" xmlns:rdf="http://www.w3.org/1999/02/22-rdf-syntax-ns#" xmlns:inkscape="http://www.inkscape.org/namespaces/inkscape" xmlns:dc="http://purl.org/dc/elements/1.1/" sodipodi:docname="simbolo_L.svg" inkscape:version="0.47 r22583"
	 xmlns="http://www.w3.org/2000/svg" xmlns:xlink="http://www.w3.org/1999/xlink" x="0px" y="0px" viewBox="-97 220.9 400 400"
	 style="enable-background:new -97 220.9 400 400;" xml:space="preserve">
<style type="text/css">
	.st0{fill:#00CCFF;}
	.st1{fill:#FFFFFF;}
</style>
<defs>
	
	
		<inkscape:perspective  id="perspective16" inkscape:vp_x="0 : 221.25 : 1" sodipodi:type="inkscape:persp3d" inkscape:vp_y="0 : 1000 : 0" inkscape:vp_z="442.5 : 221.25 : 1" inkscape:persp3d-origin="221.25 : 147.5 : 1">
		</inkscape:perspective>
	
		<inkscape:perspective  id="perspective5685" inkscape:vp_x="0 : 0.5 : 1" sodipodi:type="inkscape:persp3d" inkscape:vp_y="0 : 1000 : 0" inkscape:vp_z="1 : 0.5 : 1" inkscape:persp3d-origin="0.5 : 0.33333333 : 1">
		</inkscape:perspective>
	
		<inkscape:perspective  id="perspective2830" inkscape:vp_x="0 : 0.5 : 1" sodipodi:type="inkscape:persp3d" inkscape:vp_y="0 : 1000 : 0" inkscape:vp_z="1 : 0.5 : 1" inkscape:persp3d-origin="0.5 : 0.33333333 : 1">
		</inkscape:perspective>
	
		<inkscape:perspective  id="perspective2837" inkscape:vp_x="0 : 0.5 : 1" sodipodi:type="inkscape:persp3d" inkscape:vp_y="0 : 1000 : 0" inkscape:vp_z="1 : 0.5 : 1" inkscape:persp3d-origin="0.5 : 0.33333333 : 1">
		</inkscape:perspective>
</defs>
<sodipodi:namedview  id="namedview10" bordercolor="#666666" inkscape:cy="175.40561" borderopacity="1" showgrid="false" gridtolerance="10" objecttolerance="10" guidetolerance="10" pagecolor="#ffffff" inkscape:cx="42.076033" inkscape:zoom="1.4142136" inkscape:current-layer="svg2" inkscape:window-width="1366" inkscape:pageopacity="0" inkscape:window-maximized="1" inkscape:window-height="706" inkscape:pageshadow="2" inkscape:window-y="-8" inkscape:window-x="-8">
	</sodipodi:namedview>
<g id="layer1" transform="translate(0,-652.36218)">
	<g id="g3007" transform="matrix(0.2951006,0,0,0.2951006,-2143.7583,-2336.2691)">
		<path id="rect54" class="st0" d="M7052.8,10876h1121.5c64.6,0,117,52.4,117,117v1121.5c0,64.6-52.4,117-117,117H7052.8
			c-64.6,0-117-52.4-117-117V10993C6935.8,10928.4,6988.2,10876,7052.8,10876z"/>
		<g id="text66">
			<path id="path2871" class="st1" d="M7402.7,11223.7H7517v673.4h-130.2v-500.7c-11.3,11.6-23.6,21.7-36.8,30.2
				c-13.2,8.5-27.7,15.6-43.4,21.2V11327c23.3-13.2,43-28.5,59.2-45.8C7381.9,11264,7394.3,11244.8,7402.7,11223.7z"/>
		</g>
		<g id="text68">
			<path id="path2868" class="st1" d="M7964.2,11428.5v263.8c0,81.8-12.5,138.3-37.5,169.7c-25,31.3-69.1,47-132.4,47
				c-63.9,0-108.2-15.6-133.1-46.7c-24.9-31.1-37.3-87.8-37.3-169.9v-263.8c0-82.1,12.4-138.6,37.3-169.4
				c24.9-30.8,69.2-46.2,133.1-46.2c63.6,0,107.8,15.4,132.6,46.2C7951.8,11289.9,7964.2,11346.4,7964.2,11428.5L7964.2,11428.5z
				 M7827.9,11378c0-33.7-2.4-55.9-7.3-66.8c-4.9-10.9-13.6-16.3-26.2-16.3c-12.6,0-21.4,5.9-26.4,17.7c-5,11.8-7.6,33.6-7.6,65.4
				v364.3c0,34.9,2.4,57.5,7.3,67.7c4.9,10.2,13.8,15.3,26.7,15.3c12.3,0,20.9-5.7,26-17.2c5-11.5,7.6-33.4,7.6-65.8L7827.9,11378z"
				/>
		</g>
	</g>
</g>
</svg>
