<?xml version="1.0" encoding="utf-8"?>
<!-- Generator: Adobe Illustrator 19.1.0, SVG Export Plug-In . SVG Version: 6.00 Build 0)  -->
<svg version="1.1"
	 id="svg2" xmlns:cc="http://creativecommons.org/ns#" xmlns:sodipodi="http://sodipodi.sourceforge.net/DTD/sodipodi-0.dtd" xmlns:svg="http://www.w3.org/2000/svg" xmlns:rdf="http://www.w3.org/1999/02/22-rdf-syntax-ns#" xmlns:inkscape="http://www.inkscape.org/namespaces/inkscape" xmlns:dc="http://purl.org/dc/elements/1.1/" sodipodi:docname="simbolo_L.svg" inkscape:version="0.47 r22583"
	 xmlns="http://www.w3.org/2000/svg" xmlns:xlink="http://www.w3.org/1999/xlink" x="0px" y="0px" viewBox="-97 220.9 400 400"
	 style="enable-background:new -97 220.9 400 400;" xml:space="preserve">
<style type="text/css">
	.st0{fill:#FE0000;}
	.st1{fill:#FFFFFF;}
</style>
<defs>
	
	
		<inkscape:perspective  id="perspective16" inkscape:vp_x="0 : 221.25 : 1" sodipodi:type="inkscape:persp3d" inkscape:vp_y="0 : 1000 : 0" inkscape:vp_z="442.5 : 221.25 : 1" inkscape:persp3d-origin="221.25 : 147.5 : 1">
		</inkscape:perspective>
	
		<inkscape:perspective  id="perspective5685" inkscape:vp_x="0 : 0.5 : 1" sodipodi:type="inkscape:persp3d" inkscape:vp_y="0 : 1000 : 0" inkscape:vp_z="1 : 0.5 : 1" inkscape:persp3d-origin="0.5 : 0.33333333 : 1">
		</inkscape:perspective>
	
		<inkscape:perspective  id="perspective2830" inkscape:vp_x="0 : 0.5 : 1" sodipodi:type="inkscape:persp3d" inkscape:vp_y="0 : 1000 : 0" inkscape:vp_z="1 : 0.5 : 1" inkscape:persp3d-origin="0.5 : 0.33333333 : 1">
		</inkscape:perspective>
	
		<inkscape:perspective  id="perspective2837" inkscape:vp_x="0 : 0.5 : 1" sodipodi:type="inkscape:persp3d" inkscape:vp_y="0 : 1000 : 0" inkscape:vp_z="1 : 0.5 : 1" inkscape:persp3d-origin="0.5 : 0.33333333 : 1">
		</inkscape:perspective>
</defs>
<sodipodi:namedview  id="namedview10" bordercolor="#666666" inkscape:cy="175.40561" borderopacity="1" showgrid="false" gridtolerance="10" objecttolerance="10" guidetolerance="10" pagecolor="#ffffff" inkscape:cx="42.076033" inkscape:zoom="1.4142136" inkscape:current-layer="svg2" inkscape:window-width="1366" inkscape:pageopacity="0" inkscape:window-maximized="1" inkscape:window-height="706" inkscape:pageshadow="2" inkscape:window-y="-8" inkscape:window-x="-8">
	</sodipodi:namedview>
<g id="layer1_1_" transform="translate(0,-652.36218)">
	<g id="g3159" transform="matrix(0.2951006,0,0,0.2951006,-3612.71,-2336.2691)">
		<path id="rect60" class="st0" d="M12030.6,10876h1121.5c64.6,0,117,52.4,117,117v1121.5c0,64.6-52.4,117-117,117h-1121.5
			c-64.6,0-117-52.4-117-117V10993C11913.6,10928.4,11966,10876,12030.6,10876z"/>
		<g id="text78">
			<path id="path2898" class="st1" d="M12359.8,11196.6h114.2v673.4h-130.2v-500.7c-11.3,11.6-23.6,21.7-36.8,30.2
				c-13.2,8.5-27.7,15.6-43.4,21.2v-120.8c23.3-13.2,43-28.5,59.2-45.8C12338.9,11236.9,12351.3,11217.7,12359.8,11196.6z"/>
		</g>
		<g id="text80">
			<path id="path2895" class="st1" d="M12782.8,11621.8c0-34.6-2.3-57.1-6.8-67.5c-4.6-10.4-12.8-15.6-24.8-15.6s-20.3,5.9-25,17.7
				c-4.7,11.8-7.1,33.6-7.1,65.4v93.4c0,34.6,2.3,57.1,6.8,67.5c4.6,10.4,13,15.6,25.2,15.6c11.6,0,19.8-5.7,24.5-17
				s7.1-33.3,7.1-66.1V11621.8z M12919.2,11350.9v7.1h-136.4v-7.1c0-34.6-2.3-57.1-6.8-67.5c-4.6-10.4-12.8-15.6-24.8-15.6
				c-12,0-20.3,6-25,17.9c-4.7,12-7.1,33.7-7.1,65.1v136.4c12-15.7,25.4-27.4,40.3-34.9c14.9-7.6,32.2-11.3,51.7-11.3
				c37.8,0,65.4,12,82.8,36.1c17.5,24.1,26.2,62.5,26.2,115.4v72.7c0,82.1-12.3,138.7-37,169.9c-24.7,31.1-68.3,46.7-131,46.7
				c-62.9,0-106.7-15.5-131.4-46.5c-24.7-31-37-87.7-37-170.1v-263.8c0-82.1,12.3-138.6,37-169.4s68.5-46.2,131.4-46.2
				c63.2,0,106.9,11.7,131,35.2C12907.2,11244.3,12919.2,11287.7,12919.2,11350.9L12919.2,11350.9z"/>
		</g>
	</g>
</g>
</svg>
